<svg data-v-0dd9719b="" version="1.0" xmlns="http://www.w3.org/2000/svg" xmlns:xlink="http://www.w3.org/1999/xlink" width="100%" height="100%" viewBox="0 0 340.000000 250.000000" preserveAspectRatio="xMidYMid meet" color-interpolation-filters="sRGB" style="margin: auto;"> <rect data-v-0dd9719b="" x="0" y="0" width="100%" height="100%" fill="#fff" fill-opacity="1" class="background"></rect> <rect data-v-0dd9719b="" x="0" y="0" width="100%" height="100%" fill="url(#watermark)" fill-opacity="1" class="watermarklayer"></rect> <g data-v-0dd9719b="" fill="#333" class="icon-text-wrapper icon-svg-group iconsvg" transform="translate(48.784996032714844,95.00029945373535)"><g class="iconsvg-imagesvg" transform="translate(0,0)"><g><rect fill="#333" fill-opacity="0" stroke-width="2" x="0" y="0" width="60" height="59.99940000599994" class="image-rect"></rect> <svg x="0" y="0" width="60" height="59.99940000599994" filtersec="colorsb5048931741" class="image-svg-svg primary" style="overflow: visible;"><svg xmlns="http://www.w3.org/2000/svg" viewBox="-0.0003065168857574463 0 108.85124969482422 108.85030364990234"><path d="M78.93 30.48c-2.61-.07-5.22-.19-7.83-.19q-20.43 0-40.86.09c-.72-.8-1.41-1.63-2.17-2.4Q15.26 15.14 2.44 2.31C1.77 1.64.75 1.21.68.06Q53.54.06 106.42 0c2.17 0 2.45.63 2.43 2.56-.11 9.13 0 18.25 0 27.38l-26.5.06a6.67 6.67 0 0 0-3.42.48z" fill="#f8ac2d"></path><path d="M.68.06c.07 1.15 1.09 1.58 1.76 2.25Q15.22 15.17 28.07 28c.76.77 1.45 1.6 2.17 2.4q0 24.15-.11 48.29c-.77 2.78-3.46 3.76-5.26 5.58q-11 11.11-22.16 22.13c-.75.73-1.32 1.76-2.58 1.79V2.25C.17 1.52-.44.55.68.06z" fill="#1f208a"></path><path d="M.13 108.17c1.26 0 1.83-1.06 2.58-1.79q11.1-11 22.16-22.13c1.8-1.82 4.49-2.8 5.26-5.58 1.1.09 1.52-.86 2.14-1.46 3.78-3.64 7.52-7.33 11.29-11 .64-.62 1.1-1.63 2.32-.43Q67.44 87 89.08 108.23c.11.1.11.32.16.49H2.3c-.7-.04-1.68.57-2.17-.55z" fill="#2c3bb7"></path><path d="M78.93 30.48a6.67 6.67 0 0 1 3.42-.48h26.45v59.16c-.81-.1-1.16-.81-1.64-1.31L66.47 46.42c-1.19-1.2-1.34-1.86 0-3.14 4.2-4.18 8.3-8.52 12.46-12.8z" fill="#df8101"></path></svg></svg> <!----></g></g> <g transform="translate(67,1.9134540557861328)"><g data-gra="path-name" fill-rule="" class="tp-name iconsvg-namesvg" transform="translate(0,0)"><g transform="scale(1)"><g><path d="M14.15-16.08L30.89-16.08 30.89-25.8 14.15-25.8 14.15-16.08ZM14.15-12.79L14.15-2.94 30.89-2.94 30.89-12.79 14.15-12.79ZM34.45-29.09L42.67-29.09 42.67-25.8 34.45-25.8 34.45 3.21 30.89 3.21 30.89 0.35 14.15 0.35 14.15 3.47 10.68 3.47 10.68-25.8 2.37-25.8 2.37-29.09 10.68-29.09 10.68-37.4 14.15-37.4 14.15-29.09 30.89-29.09 30.89-37.4 34.45-37.4 34.45-29.09ZM52.08-12.35L52.08-12.35 52.08-16 55.11-16 55.11-12.3Q55.11-4.57 52.34 0L52.34 0Q51.15 1.98 49.48 3.56L49.48 3.56Q48.38 2.33 46.93 1.49L46.93 1.49Q51.86-3.03 52.08-11.34L52.08-11.34Q52.08-11.82 52.08-12.35ZM60.25-14.15L60.25-14.15 63.11-13.62Q61.83-6.5 59.55-1.89L59.55-1.89Q58.71-2.46 56.95-3.34L56.95-3.34Q58.93-6.99 60.25-14.15ZM71.72-13.67L71.72-13.67 74.53-14.24Q76.95-8.39 77.92-3.43L77.92-3.43 74.97-2.68Q74.14-7.43 71.72-13.67ZM83.98 3.03L80.82 3.03 80.82-15.91 83.98-15.91 83.98 3.03ZM69.21-21.01L79.72-21.01 79.72-24.96 69.21-24.96 69.21-21.01ZM79.72-31.42L69.21-31.42 69.21-27.6 79.72-27.6 79.72-31.42ZM83.19-34.23L83.19-27.6 87.45-27.6 87.45-24.96 83.19-24.96 83.19-18.19 69.21-18.19 69.21 3.38 65.92 3.38 65.92-18.19 52.29-18.19 52.29-21.01 65.92-21.01 65.92-24.96 47.77-24.96 47.77-27.6 65.92-27.6 65.92-31.42 52.29-31.42 52.29-34.23 65.92-34.23 65.92-37.62 69.21-37.62 69.21-34.23 83.19-34.23ZM103.62-24.04L121.51-24.04 121.51-32.52 103.62-32.52 103.62-24.04ZM100.42-35.73L124.89-35.73 124.89-20.83 100.42-20.83 100.42-35.73ZM106.48-2.2L106.48-12.88 97.08-12.88 97.08-2.2 106.48-2.2ZM97.08 3.47L93.87 3.47 93.87-16.13 109.78-16.13 109.78 3.08 106.48 3.08 106.48 1.05 97.08 1.05 97.08 3.47ZM117.91-12.88L117.91-2.2 128.1-2.2 128.1-12.88 117.91-12.88ZM114.65 3.47L114.65-16.13 131.4-16.13 131.4 3.16 128.1 3.16 128.1 1.05 117.91 1.05 117.91 3.47 114.65 3.47ZM139.26-17.97L139.26-17.97 139.26-36.04 142.16-36.04 142.16-17.97Q142.16-7.12 140.71-1.58L140.71-1.58Q139.97 1.14 138.87 3.38L138.87 3.38Q137.68 2.02 136.54 1.36L136.54 1.36Q139.04-4.35 139.22-14.9L139.22-14.9Q139.26-16.3 139.26-17.97ZM148.14-2.99L145.5-2.99 145.5-32.87 148.14-32.87 148.14-2.99ZM154.51 2.24L151.57 2.24 151.57-36.17 154.51-36.17 154.51 2.24ZM167.43-5.8L167.43-5.8 168.88-6.99Q175.03-2.07 177.76 1.23L177.76 1.23 175.43 3.38Q172.88 0.04 167.65-4.31L167.65-4.31Q167.34-4.61 167.04-4.83L167.04-4.83Q164.36 0.62 157.41 3.6L157.41 3.6Q156.53 2.24 155.35 1.27L155.35 1.27Q164.36-2.2 165.32-10.33L165.32-10.33Q165.45-11.51 165.45-12.96L165.45-12.96 165.45-21.93 168.57-21.93 168.57-12.92Q168.57-8.66 167.43-5.8ZM156.93-32.7L156.93-35.64 177.8-35.64 177.8-32.7 168.93-32.7Q168.31-31.07 167.12-28.13L167.12-28.13 176.13-28.13 176.13-6.94 172.97-6.94 172.97-25.05 161.1-25.05 161.1-6.86 158.07-6.86 158.07-28.13 164-28.13Q164.79-30.37 165.32-32.7L165.32-32.7 156.93-32.7Z" transform="translate(-2.369999885559082, 37.619998931884766)"></path></g> <!----> <!----> <!----> <!----> <!----> <!----> <!----></g></g> <g data-gra="path-slogan" fill-rule="" class="tp-slogan iconsvg-slogansvg" fill="#333" transform="translate(38.63444900512695,47.21999740600586)"><!----> <!----> <g transform="scale(1, 1)"><g transform="scale(1)"><path d="M7.31-3.61L4.69-3.61L4.69-4.59L8.44-4.59L8.44 0L7.69 0L7.41-1.08Q6.42 0.09 4.59 0.14L4.59 0.14Q2.86 0.14 1.92-0.75L1.92-0.75Q0.52-2.06 0.56-4.36L0.56-4.36Q0.89-8.63 4.64-8.81L4.64-8.81Q7.83-8.63 8.30-6L8.30-6L7.17-6Q6.70-7.78 4.59-7.83L4.59-7.83Q1.92-7.64 1.78-4.31L1.78-4.31Q1.78-0.75 4.64-0.75L4.64-0.75Q5.67-0.75 6.42-1.31L6.42-1.31Q7.36-2.06 7.31-3.61L7.31-3.61ZM15.89 0L15.05-2.48L11.58-2.48L10.69 0L9.52 0L12.75-8.58L14.06-8.58L17.16 0L15.89 0ZM13.31-7.31L11.95-3.52L14.63-3.52L13.36-7.31L13.31-7.31ZM19.59-8.58L23.91-1.64L23.91-8.58L25.03-8.58L25.03 0L23.72 0L19.36-6.94L19.31-6.94L19.31 0L18.19 0L18.19-8.58L19.59-8.58ZM33.09-6.09L33.09-6.09L32.02-6.09Q31.92-7.73 29.86-7.83L29.86-7.83Q27.94-7.78 27.94-6.33L27.94-6.33Q27.94-5.39 28.97-5.25L28.97-5.25L31.41-4.69Q33.33-4.22 33.33-2.34L33.33-2.34Q33.28 0.05 29.95 0.14L29.95 0.14Q28.13 0.14 27.38-0.61L27.38-0.61Q26.44-1.31 26.48-2.77L26.48-2.77L27.61-2.77Q27.66-0.80 29.95-0.75L29.95-0.75Q32.20-0.80 32.25-2.20L32.25-2.20Q32.44-3.38 30.38-3.75L30.38-3.75L28.59-4.13Q26.77-4.64 26.77-6.19L26.77-6.19Q26.91-8.72 29.77-8.81L29.77-8.81Q33-8.81 33.09-6.09ZM40.45-3.19L40.45-8.58L41.63-8.58L41.63-3.05Q41.48 0.05 38.11 0.14L38.11 0.14Q34.97 0.05 34.83-2.86L34.83-2.86L34.83-8.58L36-8.58L36-3.19Q36.05-0.84 38.16-0.80L38.16-0.80Q40.45-0.84 40.45-3.19L40.45-3.19ZM50.39-7.64L48.05-7.64L48.05-4.64L50.34-4.64Q52.13-4.64 52.13-6.19L52.13-6.19Q52.13-7.59 50.39-7.64L50.39-7.64ZM50.77-3.61L48.05-3.61L48.05 0L46.88 0L46.88-8.58L50.77-8.58Q53.20-8.48 53.30-6.19L53.30-6.19Q53.16-3.70 50.77-3.61L50.77-3.61ZM54.89-8.58L56.06-8.58L56.06 0L54.89 0L54.89-8.58ZM59.44-8.58L63.75-1.64L63.75-8.58L64.88-8.58L64.88 0L63.56 0L59.20-6.94L59.16-6.94L59.16 0L58.03 0L58.03-8.58L59.44-8.58ZM72.94-6.09L72.94-6.09L71.86-6.09Q71.77-7.73 69.70-7.83L69.70-7.83Q67.78-7.78 67.78-6.33L67.78-6.33Q67.78-5.39 68.81-5.25L68.81-5.25L71.25-4.69Q73.17-4.22 73.17-2.34L73.17-2.34Q73.13 0.05 69.80 0.14L69.80 0.14Q67.97 0.14 67.22-0.61L67.22-0.61Q66.28-1.31 66.33-2.77L66.33-2.77L67.45-2.77Q67.50-0.80 69.80-0.75L69.80-0.75Q72.05-0.80 72.09-2.20L72.09-2.20Q72.28-3.38 70.22-3.75L70.22-3.75L68.44-4.13Q66.61-4.64 66.61-6.19L66.61-6.19Q66.75-8.72 69.61-8.81L69.61-8.81Q72.84-8.81 72.94-6.09ZM75.80-5.06L80.30-5.06L80.30-8.58L81.47-8.58L81.47 0L80.30 0L80.30-3.98L75.80-3.98L75.80 0L74.63 0L74.63-8.58L75.80-8.58L75.80-5.06ZM88.92-3.19L88.92-8.58L90.09-8.58L90.09-3.05Q89.95 0.05 86.58 0.14L86.58 0.14Q83.44 0.05 83.30-2.86L83.30-2.86L83.30-8.58L84.47-8.58L84.47-3.19Q84.52-0.84 86.63-0.80L86.63-0.80Q88.92-0.84 88.92-3.19L88.92-3.19ZM93.28-8.58L97.59-1.64L97.59-8.58L98.72-8.58L98.72 0L97.41 0L93.05-6.94L93-6.94L93 0L91.88 0L91.88-8.58L93.28-8.58Z" transform="translate(-0.5609879032258065, 8.8125)"></path></g></g></g></g></g><defs v-gra="od"></defs></svg>